<svg width="268" height="53" xmlns="http://www.w3.org/2000/svg" xmlns:xlink="http://www.w3.org/1999/xlink" overflow="hidden"><defs><clipPath id="clip0"><rect x="976" y="36" width="268" height="53"/></clipPath></defs><g clip-path="url(#clip0)" transform="translate(-976 -36)"><path d="M25.7398 51.4186 19.7623 41.4155C19.7623 41.4155 19.5793 41.1715 19.5793 40.8055L19.5793 40.5615 19.5793 40.0736 19.5793 22.2021 17.3225 22.2021 17.3225 40.8055 17.3225 41.3545C17.5055 41.5374 21.2872 48.0029 21.2872 48.0029L11.894 48.0029C11.894 48.0029 15.6757 41.5374 15.8586 41.3545L15.8586 40.8055 15.8586 22.2021 13.6018 22.2021 13.6018 40.0126 13.6018 40.5005 13.6018 40.7445C13.6018 41.1105 13.4189 41.3545 13.4189 41.3545L7.38037 51.3576 25.7398 51.3576 25.7398 51.4186Z" fill="#996600" transform="matrix(1 0 0 1.01038 976 36.3698)"/><path d="M14.8153 9.21021C14.8153 9.21021 15.9742 4.51361 11.8875 1.46387 11.8875 1.46387 10.3017 -8.12614e-16 7.19094 -8.12614e-16 4.44617 -8.12614e-16 2.86031 1.46387 2.86031 1.46387-0.860373 4.02566 0.115544 9.21021 0.115544 9.21021L14.8153 9.21021Z" fill="#996600" transform="matrix(1 0 0 1.01038 985.095 36.3698)"/><path d="M0.542507 10.4911 14.3273 10.4911C14.4493 10.2471 14.5103 9.94215 14.6323 9.69817L0.298528 9.69817C0.359523 10.0031 0.420518 10.2471 0.542507 10.4911Z" fill="#996600" transform="matrix(1 0 0 1.01038 985.095 36.3698)"/><path d="M14.1443 10.9791 0.786487 10.9791C0.908476 11.284 1.09146 11.528 1.27444 11.772L13.7174 11.772C13.8394 11.528 14.0224 11.284 14.1443 10.9791Z" fill="#996600" transform="matrix(1 0 0 1.01038 985.095 36.3698)"/><path d="M2.12837 12.9309 12.7415 12.9309C12.9244 12.7479 13.1074 12.5039 13.2904 12.26L1.57942 12.26C1.7624 12.5039 1.94539 12.7479 2.12837 12.9309Z" fill="#996600" transform="matrix(1 0 0 1.01038 985.095 36.3698)"/><path d="M3.28727 13.9068 11.6436 13.9068C11.8875 13.7848 12.0705 13.6018 12.2535 13.4189L2.67733 13.4189C2.86031 13.6018 3.04329 13.7238 3.28727 13.9068Z" fill="#996600" transform="matrix(1 0 0 1.01038 985.095 36.3698)"/><path d="M4.44617 14.5778C5.3611 15.0047 6.39801 15.2487 7.43492 15.2487 8.53282 15.2487 9.50874 15.0047 10.4237 14.5778L4.44617 14.5778Z" fill="#996600" transform="matrix(1 0 0 1.01038 985.095 36.3698)"/><path d="M30.8634 15.5537 19.5793 15.5537C19.5793 15.5537 18.5424 15.5537 17.6885 16.1026 17.0175 16.5296 16.5906 17.5665 16.5296 17.6275L16.5296 17.6275C16.5296 17.5665 16.0416 16.5296 15.3707 16.1026 14.5168 15.5537 13.4798 15.5537 13.4798 15.5537L2.25681 15.5537 1.08349e-15 19.1524 10.3691 19.1524C10.3691 19.1524 10.6741 19.1524 10.8571 19.2134 11.162 19.2744 11.711 19.3963 12.26 19.8233 13.0529 20.3723 13.2359 20.6772 13.4189 20.8602 13.5408 20.9822 13.7848 21.2872 13.7848 21.2872L16.3466 21.2872 16.6516 21.2872 16.6516 21.2872 17.5055 21.2872 19.4573 21.2872C19.4573 21.2872 19.7013 20.9822 19.8233 20.8602 20.0063 20.6772 20.2503 20.3723 20.9822 19.8233 21.5312 19.3963 22.0801 19.2744 22.3851 19.2134 22.5681 19.1524 22.873 19.1524 22.873 19.1524L33.2422 19.1524 30.8634 15.5537Z" fill="#003366" transform="matrix(1 0 0 1.01038 976 36.3698)"/><path d="M8.12614e-16 4.33394e-15 8.12614e-16 16.9566C8.12614e-16 16.9566 8.12614e-16 17.1395 8.12614e-16 17.2005 8.12614e-16 17.3835 8.12614e-16 17.5665 8.12614e-16 17.6885 0.182984 19.5183 0.731937 20.8602 1.82984 22.6291 3.4767 25.3738 6.52644 27.3257 6.52644 27.3257L7.92932 25.0689C7.92932 25.0689 5.97749 24.0319 4.45262 21.7141 4.14765 21.2262 3.84267 20.7992 3.59869 20.3723 3.41571 19.9453 3.23272 19.6403 3.11073 19.2744 3.04974 19.0304 2.92775 18.7864 2.92775 18.5424 2.86675 18.2374 2.80576 17.9935 2.80576 17.6885 2.80576 17.5665 2.80576 17.1395 2.80576 17.1395L2.80576 17.0785 2.80576 4.33394e-15 8.12614e-16 4.33394e-15Z" fill="#003366" transform="matrix(1 0 0 1.01038 977.098 56.8302)"/><path d="M4.33063 4.33394e-15 4.33063 17.1395C4.33063 17.1395 4.33063 17.2005 4.33063 17.2615 4.33063 17.3225 4.33063 17.4445 4.33063 17.5665 4.33063 17.6275 4.33063 17.6885 4.33063 17.7495 4.39162 17.9935 4.45262 18.2374 4.57461 18.6034 4.75759 19.1524 5.12356 19.8843 5.61152 20.6772 6.89241 22.7511 8.72225 23.666 8.72225 23.666L10.1251 21.4702C10.1251 21.4702 9.63718 21.2262 9.08822 20.6772 8.72225 20.3113 8.2343 19.8233 7.86833 19.2744 7.50236 18.6644 7.25838 18.1155 7.13639 17.6885 7.0754 17.2615 7.0754 16.9566 7.0754 16.7736 7.0754 16.5906 7.0754 16.5296 7.0754 16.5296L7.0754 4.33394e-15 4.33063 4.33394e-15Z" fill="#003366" transform="matrix(1 0 0 1.01038 977.098 56.8302)"/><path d="M10.1251 4.33394e-15 10.1251 16.9566C10.1251 16.9566 10.1251 17.1395 10.1251 17.2005 10.1251 17.3835 10.1251 17.5665 10.1251 17.6885 9.94215 19.5183 9.3932 20.8602 8.29529 22.6291 6.64843 25.3738 3.59869 27.3257 3.59869 27.3257L2.19581 25.0689C2.19581 25.0689 4.14765 24.0319 5.67251 21.7141 5.97749 21.2262 6.28246 20.7992 6.52644 20.3723 6.70943 19.9453 6.89241 19.6403 7.0144 19.2744 7.0754 19.0304 7.19738 18.7864 7.19738 18.5424 7.25838 18.2374 7.31937 17.9935 7.31937 17.6885 7.31937 17.5665 7.31937 17.1395 7.31937 17.1395L7.31937 17.0785 7.31937 4.33394e-15 10.1251 4.33394e-15Z" fill="#003366" transform="matrix(1 0 0 1.01038 997.897 56.8302)"/><path d="M5.7945 4.33394e-15 5.7945 17.1395C5.7945 17.1395 5.7945 17.2005 5.7945 17.2615 5.7945 17.3225 5.7945 17.4445 5.7945 17.5665 5.7945 17.6275 5.7945 17.6885 5.7945 17.7495 5.73351 17.9935 5.67251 18.2374 5.55053 18.6034 5.36754 19.1524 5.00157 19.8843 4.51361 20.6772 3.23272 22.7511 1.40288 23.666 1.40288 23.666L0 21.4702C0 21.4702 0.487958 21.2262 1.03691 20.6772 1.40288 20.3113 1.89084 19.8233 2.25681 19.2744 2.62278 18.6644 2.86675 18.1155 2.98874 17.6885 3.11073 17.3225 3.11073 17.0175 3.11073 16.8346 3.11073 16.6516 3.11073 16.5906 3.11073 16.5906L3.11073 4.33394e-15 5.7945 4.33394e-15Z" fill="#003366" transform="matrix(1 0 0 1.01038 997.897 56.8302)"/><path d="M4.39162 12.7479 2.86675 12.7479 2.86675 1.95183-8.66788e-15 1.95183-8.66788e-15 0.548953 7.25838 0.548953 7.25838 1.95183 4.39162 1.95183Z" fill="#003366" transform="matrix(1 0 0 1.01038 1017.05 75.0105)"/><path d="M8.60026 0.609948 15.1267 0.609948 15.1267 2.01283 10.1251 2.01283 10.1251 5.42854 15.0047 5.42854 15.0047 6.83142 10.1251 6.83142 10.1251 11.406 15.1267 11.406 15.1267 12.7479 8.60026 12.7479Z" fill="#003366" transform="matrix(1 0 0 1.01038 1017.05 75.0105)"/><path d="M26.0448 2.92775C25.1908 2.13482 23.971 1.70785 22.812 1.70785 20.0673 1.70785 17.9935 3.96466 17.9935 6.64843 17.9935 9.3322 20.0673 11.589 22.7511 11.589 23.971 11.589 25.0689 11.162 25.9838 10.3081L25.9838 12.138C25.0689 12.6869 23.849 12.9919 22.812 12.9919 19.3353 12.9919 16.4686 10.2471 16.4686 6.70943 16.4686 3.11073 19.3353 0.304974 22.934 0.304974 23.971 0.304974 25.0689 0.548953 25.9838 1.09791L25.9838 2.92775 26.0448 2.92775Z" fill="#003366" transform="matrix(1 0 0 1.01038 1017.05 75.0105)"/><path d="M35.133 5.48953 35.133 0.609948 36.6579 0.609948 36.6579 12.7479 35.133 12.7479 35.133 6.89241 29.3385 6.89241 29.3385 12.7479 27.8136 12.7479 27.8136 0.609948 29.3385 0.609948 29.3385 5.48953Z" fill="#003366" transform="matrix(1 0 0 1.01038 1017.05 75.0105)"/><path d="M38.8537 0 47.9419 9.57618 47.9419 0.609948 49.4668 0.609948 49.4668 13.2359 40.3785 3.65969 40.3785 12.7479 38.8537 12.7479Z" fill="#003366" transform="matrix(1 0 0 1.01038 1017.05 75.0105)"/><path d="M63.6786 6.64843C63.6786 10.2471 60.8118 12.9919 57.3351 12.9919 53.7974 12.9919 50.9916 10.2471 50.9916 6.64843 50.9916 3.17173 53.8584 0.304974 57.3351 0.304974 60.8118 0.304974 63.6786 3.17173 63.6786 6.64843ZM62.1537 6.64843C62.1537 3.96466 60.1409 1.70785 57.3351 1.70785 54.4683 1.70785 52.5165 3.96466 52.5165 6.64843 52.5165 9.3932 54.7123 11.589 57.3351 11.589 59.9579 11.589 62.1537 9.45419 62.1537 6.64843Z" fill="#003366" transform="matrix(1 0 0 1.01038 1017.05 75.0105)"/><path d="M66.7893 11.345 70.449 11.345 70.449 12.7479 65.3254 12.7479 65.3254 0.609948 66.8503 0.609948 66.8503 11.345Z" fill="#003366" transform="matrix(1 0 0 1.01038 1017.05 75.0105)"/><path d="M83.5019 6.64843C83.5019 10.2471 80.6351 12.9919 77.1584 12.9919 73.6207 12.9919 70.8149 10.2471 70.8149 6.64843 70.8149 3.17173 73.6817 0.304974 77.1584 0.304974 80.6351 0.304974 83.5019 3.17173 83.5019 6.64843ZM82.038 6.64843C82.038 3.96466 80.0252 1.70785 77.2194 1.70785 74.3526 1.70785 72.4008 3.96466 72.4008 6.64843 72.4008 9.3932 74.5966 11.589 77.2194 11.589 79.7812 11.589 82.038 9.45419 82.038 6.64843Z" fill="#003366" transform="matrix(1 0 0 1.01038 1017.05 75.0105)"/><path d="M96.1888 6.58744 96.1888 7.0754C96.1888 10.4301 93.81 12.9919 90.4553 12.9919 87.0396 12.9919 84.2948 10.0641 84.2948 6.70943 84.2948 3.23272 87.1006 0.365969 90.5773 0.365969 92.4681 0.365969 94.3589 1.2199 95.5178 2.74477L94.4809 3.78168C93.627 2.56178 92.1631 1.82984 90.6383 1.82984 87.8935 1.82984 85.8197 4.02566 85.8197 6.77042 85.8197 9.3322 87.8935 11.711 90.5163 11.711 92.4071 11.711 94.4199 10.0641 94.4809 8.11231L91.3702 8.11231 91.3702 6.70943 96.1888 6.70943 96.1888 6.58744Z" fill="#003366" transform="matrix(1 0 0 1.01038 1017.05 75.0105)"/><path d="M96.6157 0.609948 98.3846 0.609948 101.373 5.7945 104.362 0.609948 106.131 0.609948 102.166 7.44136 102.166 12.7479 100.641 12.7479 100.641 7.44136Z" fill="#003366" transform="matrix(1 0 0 1.01038 1017.05 75.0105)"/><path d="M4.39162 12.6869 2.86675 12.6869 2.86675 1.95183-8.66788e-15 1.95183-8.66788e-15 0.548953 7.25838 0.548953 7.25838 1.95183 4.39162 1.95183Z" fill="#003366" transform="matrix(1 0 0 1.01038 1016.01 36)"/><path d="M15.7976 5.48953 15.7976 0.609948 17.3225 0.609948 17.3225 12.7479 15.7976 12.7479 15.7976 6.89241 10.0031 6.89241 10.0031 12.7479 8.47828 12.7479 8.47828 0.548953 10.0031 0.548953 10.0031 5.42854 15.7976 5.42854Z" fill="#003366" transform="matrix(1 0 0 1.01038 1016.01 36)"/><path d="M19.6403 0.548953 26.1668 0.548953 26.1668 1.95183 21.1652 1.95183 21.1652 5.36754 26.0448 5.36754 26.0448 6.77042 21.1652 6.77042 21.1652 11.345 26.1668 11.345 26.1668 12.7479 19.6403 12.7479Z" fill="#003366" transform="matrix(1 0 0 1.01038 1016.01 36)"/><path d="M40.1956 5.48953 40.1956 0.609948 41.7204 0.609948 41.7204 12.7479 40.1956 12.7479 40.1956 6.89241 34.4011 6.89241 34.4011 12.7479 32.8762 12.7479 32.8762 0.548953 34.4011 0.548953 34.4011 5.42854 40.1956 5.42854Z" fill="#003366" transform="matrix(1 0 0 1.01038 1016.01 36)"/><path d="M55.9322 6.64843C55.9322 10.2471 53.0655 12.9919 49.5888 12.9919 46.0511 12.9919 43.2453 10.2471 43.2453 6.64843 43.2453 3.17173 46.1121 0.304974 49.5888 0.304974 53.0045 0.304974 55.9322 3.17173 55.9322 6.64843ZM54.4074 6.64843C54.4074 3.96466 52.3945 1.70785 49.5888 1.70785 46.722 1.70785 44.7702 3.96466 44.7702 6.64843 44.7702 9.3932 46.966 11.589 49.5888 11.589 52.1505 11.528 54.4074 9.3932 54.4074 6.64843Z" fill="#003366" transform="matrix(1 0 0 1.01038 1016.01 36)"/><path d="M57.3961 -4.06307e-16 66.4843 9.57618 66.4843 0.548953 68.0092 0.548953 68.0092 13.1749 58.921 3.65969 58.921 12.6869 57.3961 12.6869Z" fill="#003366" transform="matrix(1 0 0 1.01038 1016.01 36)"/><path d="M81.428 6.58744 81.428 7.0754C81.428 10.4301 79.0492 12.9919 75.6945 12.9919 72.2788 12.9919 69.5341 10.0641 69.5341 6.70943 69.5341 3.23272 72.3398 0.365969 75.8165 0.365969 77.7074 0.365969 79.5982 1.2199 80.7571 2.74477L79.7202 3.78168C78.8663 2.56178 77.4024 1.82984 75.8775 1.82984 73.1327 1.82984 71.0589 4.02566 71.0589 6.77042 71.0589 9.3322 73.1327 11.711 75.7555 11.711 77.6464 11.711 79.6592 10.0641 79.7202 8.11231L76.6095 8.11231 76.6095 6.70943 81.428 6.70943 81.428 6.58744Z" fill="#003366" transform="matrix(1 0 0 1.01038 1016.01 36)"/><path d="M94.5419 0.548953 96.4938 0.548953 91.0652 5.97749 96.6157 12.6869 94.5419 12.6869 89.9673 7.0144 89.3574 7.62435 89.3574 12.6869 87.8325 12.6869 87.8325 0.548953 89.3574 0.548953 89.3574 5.7945Z" fill="#003366" transform="matrix(1 0 0 1.01038 1016.01 36)"/><path d="M109.547 6.64843C109.547 10.2471 106.68 12.9919 103.203 12.9919 99.6655 12.9919 96.8597 10.2471 96.8597 6.64843 96.8597 3.17173 99.7265 0.304974 103.203 0.304974 106.68 0.304974 109.547 3.17173 109.547 6.64843ZM108.022 6.64843C108.022 3.96466 106.009 1.70785 103.203 1.70785 100.336 1.70785 98.3846 3.96466 98.3846 6.64843 98.3846 9.3932 100.58 11.589 103.203 11.589 105.826 11.528 108.022 9.3932 108.022 6.64843Z" fill="#003366" transform="matrix(1 0 0 1.01038 1016.01 36)"/><path d="M111.011 -4.06307e-16 120.099 9.57618 120.099 0.548953 121.624 0.548953 121.624 13.1749 112.535 3.65969 112.535 12.6869 111.011 12.6869Z" fill="#003366" transform="matrix(1 0 0 1.01038 1016.01 36)"/><path d="M135.042 6.58744 135.042 7.0754C135.042 10.4301 132.664 12.9919 129.309 12.9919 125.893 12.9919 123.148 10.0641 123.148 6.70943 123.148 3.23272 125.954 0.365969 129.431 0.365969 131.322 0.365969 133.213 1.2199 134.372 2.74477L133.335 3.78168C132.481 2.56178 131.017 1.82984 129.492 1.82984 126.747 1.82984 124.673 4.02566 124.673 6.77042 124.673 9.3322 126.747 11.711 129.37 11.711 131.261 11.711 133.274 10.0641 133.335 8.11231L130.224 8.11231 130.224 6.70943 135.042 6.70943 135.042 6.58744Z" fill="#003366" transform="matrix(1 0 0 1.01038 1016.01 36)"/><path d="M1.52487 0.548953 1.52487 7.68534C1.52487 9.63718 2.13482 11.528 4.45262 11.528 6.77042 11.528 7.38037 9.69817 7.38037 7.68534L7.38037 0.548953 8.90524 0.548953 8.90524 8.2343C8.90524 10.9181 7.25838 12.9309 4.45262 12.9309 1.64686 12.9309 8.66788e-15 10.8571 8.66788e-15 8.2343L8.66788e-15 0.548953 1.52487 0.548953Z" fill="#003366" transform="matrix(1 0 0 1.01038 1016.93 55.536)"/><path d="M11.223 0 20.3113 9.51519 20.3113 0.548953 21.8361 0.548953 21.8361 13.1749 12.7479 3.65969 12.7479 12.6869 11.223 12.6869Z" fill="#003366" transform="matrix(1 0 0 1.01038 1016.93 55.536)"/><path d="M26.2888 12.6869 24.7639 12.6869 24.7639 0.548953 26.2888 0.548953Z" fill="#003366" transform="matrix(1 0 0 1.01038 1016.93 55.536)"/><path d="M32.7542 9.51519 36.3529 0.548953 37.9998 0.548953 32.7542 13.3579 27.4477 0.548953 29.0945 0.548953Z" fill="#003366" transform="matrix(1 0 0 1.01038 1016.93 55.536)"/><path d="M39.2196 0.548953 45.7461 0.548953 45.7461 1.95183 40.7445 1.95183 40.7445 5.36754 45.6241 5.36754 45.6241 6.77042 40.7445 6.77042 40.7445 11.284 45.7461 11.284 45.7461 12.6869 39.2196 12.6869Z" fill="#003366" transform="matrix(1 0 0 1.01038 1016.93 55.536)"/><path d="M55.3223 12.6869 53.4924 12.6869 49.8937 7.56335 49.2838 7.56335 49.2838 12.6869 47.7589 12.6869 47.7589 0.548953 49.5888 0.548953C50.6867 0.548953 51.8456 0.548953 52.8215 1.09791 53.8584 1.70785 54.4074 2.86675 54.4074 3.96466 54.4074 5.73351 53.2484 7.13639 51.4796 7.38037L55.3223 12.6869ZM49.2838 6.28246 49.7717 6.28246C51.2966 6.28246 53.0045 5.97749 53.0045 4.08665 53.0045 2.19581 51.1746 1.89084 49.7108 1.89084L49.2838 1.89084 49.2838 6.28246 49.2838 6.28246Z" fill="#003366" transform="matrix(1 0 0 1.01038 1016.93 55.536)"/><path d="M62.2757 2.86675C61.8487 2.13482 61.2388 1.70785 60.3238 1.70785 59.3479 1.70785 58.311 2.3788 58.311 3.41571 58.311 4.39162 59.2259 4.87958 60.0189 5.18456L60.8728 5.55053C62.5807 6.22147 63.8615 7.19738 63.8615 9.21021 63.8615 11.406 62.1537 12.9919 59.9579 12.9919 58.006 12.9919 56.4812 11.528 56.1762 9.57618L57.7011 9.27121C57.7011 10.6131 58.738 11.589 60.0799 11.589 61.3608 11.589 62.3367 10.4911 62.3367 9.21021 62.3367 7.92932 61.2998 7.31937 60.2628 6.89241L59.4089 6.52644C58.006 5.91649 56.7861 5.12356 56.7861 3.4767 56.7861 1.52487 58.555 0.365969 60.3848 0.365969 61.7267 0.365969 62.8246 1.03691 63.4956 2.19581L62.2757 2.86675Z" fill="#003366" transform="matrix(1 0 0 1.01038 1016.93 55.536)"/><path d="M67.3992 12.6869 65.8744 12.6869 65.8744 0.548953 67.3992 0.548953Z" fill="#003366" transform="matrix(1 0 0 1.01038 1016.93 55.536)"/><path d="M73.4377 12.6869 71.9128 12.6869 71.9128 1.95183 69.0461 1.95183 69.0461 0.548953 76.3045 0.548953 76.3045 1.95183 73.4377 1.95183 73.4377 12.6869Z" fill="#003366" transform="matrix(1 0 0 1.01038 1016.93 55.536)"/><path d="M76.8534 0.548953 78.6223 0.548953 81.611 5.73351 84.5998 0.548953 86.3686 0.548953 82.404 7.38037 82.404 12.6869 80.8791 12.6869 80.8791 7.38037Z" fill="#003366" transform="matrix(1 0 0 1.01038 1016.93 55.536)"/><path d="M104.484 6.64843C104.484 10.2471 101.617 12.9919 98.1406 12.9919 94.6029 12.9919 91.7972 10.2471 91.7972 6.64843 91.7972 3.17173 94.6639 0.304974 98.1406 0.304974 101.556 0.304974 104.484 3.17173 104.484 6.64843ZM102.959 6.64843C102.959 3.96466 100.946 1.70785 98.1406 1.70785 95.2739 1.70785 93.322 3.96466 93.322 6.64843 93.322 9.3932 95.5178 11.589 98.1406 11.589 100.702 11.528 102.959 9.3932 102.959 6.64843Z" fill="#003366" transform="matrix(1 0 0 1.01038 1016.93 55.536)"/><path d="M107.839 1.95183 107.839 5.36754 112.047 5.36754 112.047 6.77042 107.839 6.77042 107.839 12.7479 106.314 12.7479 106.314 0.548953 112.169 0.548953 112.169 1.95183 107.839 1.95183Z" fill="#003366" transform="matrix(1 0 0 1.01038 1016.93 55.536)"/><path d="M125.039 2.86675C124.612 2.13482 124.002 1.70785 123.087 1.70785 122.112 1.70785 121.075 2.3788 121.075 3.41571 121.075 4.39162 121.99 4.87958 122.783 5.18456L123.636 5.55053C125.344 6.22147 126.625 7.19738 126.625 9.21021 126.625 11.406 124.917 12.9919 122.722 12.9919 120.77 12.9919 119.245 11.528 118.94 9.57618L120.465 9.27121C120.465 10.6131 121.502 11.589 122.843 11.589 124.124 11.589 125.1 10.4911 125.1 9.21021 125.1 7.92932 124.063 7.31937 123.026 6.89241L122.173 6.52644C120.77 5.91649 119.55 5.12356 119.55 3.4767 119.55 1.52487 121.319 0.365969 123.148 0.365969 124.49 0.365969 125.588 1.03691 126.259 2.19581L125.039 2.86675Z" fill="#003366" transform="matrix(1 0 0 1.01038 1016.93 55.536)"/><path d="M137.604 2.86675C136.75 2.07382 135.53 1.64686 134.372 1.64686 131.627 1.64686 129.553 3.90367 129.553 6.58744 129.553 9.27121 131.627 11.528 134.311 11.528 135.53 11.528 136.628 11.1011 137.543 10.2471L137.543 12.016C136.628 12.5649 135.408 12.8699 134.372 12.8699 130.895 12.8699 128.028 10.1251 128.028 6.58744 128.028 2.98874 130.895 0.182984 134.493 0.182984 135.53 0.182984 136.628 0.426964 137.543 0.975917L137.543 2.86675 137.604 2.86675Z" fill="#003366" transform="matrix(1 0 0 1.01038 1016.93 55.536)"/><path d="M141.63 12.6869 140.105 12.6869 140.105 0.548953 141.63 0.548953Z" fill="#003366" transform="matrix(1 0 0 1.01038 1016.93 55.536)"/><path d="M144.619 0.548953 151.145 0.548953 151.145 1.95183 146.144 1.95183 146.144 5.36754 151.023 5.36754 151.023 6.77042 146.144 6.77042 146.144 11.284 151.145 11.284 151.145 12.6869 144.619 12.6869Z" fill="#003366" transform="matrix(1 0 0 1.01038 1016.93 55.536)"/><path d="M153.585 0 162.673 9.57618 162.673 0.548953 164.198 0.548953 164.198 13.1749 155.11 3.65969 155.11 12.6869 153.585 12.6869Z" fill="#003366" transform="matrix(1 0 0 1.01038 1016.93 55.536)"/><path d="M175.482 2.86675C174.628 2.07382 173.408 1.64686 172.249 1.64686 169.505 1.64686 167.431 3.90367 167.431 6.58744 167.431 9.27121 169.505 11.528 172.188 11.528 173.408 11.528 174.506 11.1011 175.421 10.2471L175.421 12.016C174.506 12.5649 173.286 12.8699 172.249 12.8699 168.773 12.8699 165.906 10.1251 165.906 6.58744 165.906 2.98874 168.773 0.182984 172.371 0.182984 173.408 0.182984 174.506 0.426964 175.421 0.975917L175.421 2.86675 175.482 2.86675Z" fill="#003366" transform="matrix(1 0 0 1.01038 1016.93 55.536)"/><path d="M177.678 0.548953 184.204 0.548953 184.204 1.95183 179.203 1.95183 179.203 5.36754 184.082 5.36754 184.082 6.77042 179.203 6.77042 179.203 11.284 184.204 11.284 184.204 12.6869 177.678 12.6869Z" fill="#003366" transform="matrix(1 0 0 1.01038 1016.93 55.536)"/><path d="M235.135 29.0335 233.732 32.0833 232.085 32.0833 237.88 19.4573 243.674 32.0833 242.027 32.0833 240.624 29.0335 235.135 29.0335 235.135 29.0335ZM237.941 22.7511 235.806 27.6916 240.136 27.6916 237.941 22.7511Z" fill="#003366" transform="matrix(1 0 0 1.01038 976 36)"/><path d="M245.138 19.3353 254.226 28.9115 254.226 19.9453 255.751 19.9453 255.751 32.5712 246.663 22.995 246.663 32.0223 245.138 32.0223Z" fill="#003366" transform="matrix(1 0 0 1.01038 976 36)"/><path d="M258.069 19.9453 260.57 19.9453C264.29 19.9453 267.401 21.8971 267.401 25.9228 267.401 30.0704 264.351 32.0833 260.57 32.0833L258.13 32.0833 258.13 19.9453 258.069 19.9453ZM259.533 30.6804 260.082 30.6804C263.193 30.6804 265.876 29.5215 265.876 25.9838 265.876 22.4461 263.193 21.2872 260.082 21.2872L259.533 21.2872 259.533 30.6804Z" fill="#003366" transform="matrix(1 0 0 1.01038 976 36)"/><path d="M11.894 6.64843 11.894 7.13639C11.894 10.4911 9.51519 13.0529 6.16047 13.0529 2.74477 13.0529 0 10.1251 0 6.77042 0 3.29372 2.80576 0.426964 6.28246 0.426964 8.1733 0.426964 10.0641 1.28089 11.223 2.80576L10.1861 3.84267C9.3322 2.62278 7.86833 1.82984 6.34346 1.82984 3.59869 1.82984 1.46387 4.02566 1.46387 6.77042 1.46387 9.3322 3.5377 11.711 6.16047 11.711 8.05131 11.711 10.0641 10.0641 10.1251 8.11231L6.95341 8.11231 6.95341 6.64843 11.894 6.64843Z" fill="#003366" transform="matrix(1 0 0 1.01038 1133.67 75.0105)"/><path d="M14.8827 0.609948 14.8827 7.80733C14.8827 9.82016 15.4927 11.65 17.8105 11.65 20.1283 11.65 20.7382 9.82016 20.7382 7.80733L20.7382 0.609948 22.2631 0.609948 22.2631 8.29529C22.2631 10.9791 20.6162 12.9919 17.8105 12.9919 15.0047 12.9919 13.3579 10.9181 13.3579 8.29529L13.3579 0.609948 14.8827 0.609948Z" fill="#003366" transform="matrix(1 0 0 1.01038 1133.67 75.0105)"/><path d="M26.2278 9.69817 24.8249 12.7479 23.178 12.7479 28.9725 0.0609948 34.767 12.7479 33.1202 12.7479 31.7173 9.69817 26.2278 9.69817ZM29.0335 3.41571 26.8987 8.35629 31.2293 8.35629 29.0335 3.41571Z" fill="#003366" transform="matrix(1 0 0 1.01038 1133.67 75.0105)"/><path d="M35.8649 0 45.0142 9.57618 45.0142 0.609948 46.539 0.609948 46.539 13.2969 37.3898 3.72068 37.3898 12.7479 35.8649 12.7479Z" fill="#003366" transform="matrix(1 0 0 1.01038 1133.67 75.0105)"/><path d="M59.8969 6.64843 59.8969 7.13639C59.8969 10.4911 57.5181 13.0529 54.1634 13.0529 50.7477 13.0529 48.0029 10.1251 48.0029 6.77042 48.0029 3.29372 50.8087 0.426964 54.2854 0.426964 56.1762 0.426964 58.067 1.28089 59.2259 2.80576L58.189 3.84267C57.3351 2.62278 55.8712 1.82984 54.3464 1.82984 51.6016 1.82984 49.4668 4.02566 49.4668 6.77042 49.4668 9.3322 51.5406 11.711 54.1634 11.711 56.0542 11.711 58.067 10.0641 58.128 8.11231L54.9563 8.11231 54.9563 6.64843 59.8969 6.64843Z" fill="#003366" transform="matrix(1 0 0 1.01038 1133.67 75.0105)"/><path d="M69.1681 11.345 69.1681 12.7479 60.5068 12.7479 66.6673 1.95183 61.3608 1.95183 61.3608 0.548953 69.1071 0.548953 62.9466 11.345Z" fill="#003366" transform="matrix(1 0 0 1.01038 1133.67 75.0105)"/><path d="M77.7683 5.48953 77.7683 0.609948 79.2932 0.609948 79.2932 12.7479 77.7683 12.7479 77.7683 6.89241 71.9738 6.89241 71.9738 12.7479 70.449 12.7479 70.449 0.609948 71.9738 0.609948 71.9738 5.48953Z" fill="#003366" transform="matrix(1 0 0 1.01038 1133.67 75.0105)"/><path d="M93.505 6.64843C93.505 10.2471 90.6383 12.9919 87.1616 12.9919 83.6238 12.9919 80.8181 10.2471 80.8181 6.64843 80.8181 3.17173 83.6848 0.304974 87.1616 0.304974 90.6383 0.304974 93.505 3.17173 93.505 6.64843ZM91.9801 6.64843C91.9801 3.96466 89.9673 1.70785 87.1006 1.70785 84.2338 1.70785 82.221 3.96466 82.221 6.64843 82.221 9.3932 84.4778 11.589 87.1006 11.589 89.7843 11.589 91.9801 9.45419 91.9801 6.64843Z" fill="#003366" transform="matrix(1 0 0 1.01038 1133.67 75.0105)"/><path d="M96.4328 0.609948 96.4328 7.80733C96.4328 9.82016 97.0427 11.65 99.3605 11.65 101.678 11.65 102.288 9.82016 102.288 7.80733L102.288 0.609948 103.813 0.609948 103.813 8.29529C103.813 10.9791 102.166 12.9919 99.3605 12.9919 96.5547 12.9919 94.9079 10.9181 94.9079 8.29529L94.9079 0.609948 96.4328 0.609948Z" fill="#003366" transform="matrix(1 0 0 1.01038 1133.67 75.0105)"/><path d="M3.72068 0.0609948C3.04974 1.28089 2.62278 2.3178 2.3178 3.11073 1.89084 4.45262 1.64686 5.7945 1.64686 7.25838 1.64686 9.57618 2.3178 11.955 3.72068 14.3948L2.62278 14.3948C1.89084 13.3579 1.28089 12.26 0.731937 10.9791 0.243979 9.69817 0 8.41728 0 7.19738 0 5.48953 0.426964 3.84267 1.28089 2.13482 1.76885 1.28089 2.19581 0.548953 2.56178 0L3.72068 0 3.72068 0.0609948Z" fill="#003366" transform="matrix(1 0 0 1.01038 1128 74.3942)"/><path d="M115.951 7.25838C115.951 8.96623 115.524 10.6131 114.67 12.3209 114.243 13.1139 113.816 13.8458 113.389 14.4558L112.291 14.4558C112.962 13.2359 113.389 12.199 113.694 11.406 114.121 10.0641 114.365 8.72225 114.365 7.25838 114.365 4.94058 113.694 2.56178 112.291 0.12199L113.389 0.12199C114.121 1.09791 114.731 2.25681 115.219 3.5377 115.707 4.81859 115.951 6.09948 115.951 7.25838Z" fill="#003366" transform="matrix(1 0 0 1.01038 1128 74.3942)"/></g></svg>